<svg width="100" height="100" viewBox="0 0 100 100" fill="none" xmlns="http://www.w3.org/2000/svg">
<rect width="100" height="100" fill="#222222"/>
<path d="M47.168 72H42.112L41.664 66.752C40.384 68.8427 38.912 70.3787 37.248 71.36C35.584 72.2987 33.5573 72.768 31.168 72.768C28.224 72.768 25.92 71.872 24.256 70.08C22.592 68.288 21.76 65.7493 21.76 62.464V38.272H27.648V61.824C27.648 64.128 28.0533 65.7707 28.864 66.752C29.6747 67.6907 30.9973 68.16 32.832 68.16C36.1173 68.16 38.9333 66.2187 41.28 62.336V38.272H47.168V72ZM71.618 37.504C73.6233 37.504 75.458 37.8027 77.122 38.4C78.786 38.9547 80.386 39.872 81.922 41.152L79.106 44.864C77.9113 44.0107 76.738 43.392 75.586 43.008C74.4767 42.5813 73.2393 42.368 71.874 42.368C69.1433 42.368 67.01 43.456 65.474 45.632C63.9807 47.808 63.234 51.0293 63.234 55.296C63.234 59.5627 63.9807 62.72 65.474 64.768C66.9673 66.7733 69.1007 67.776 71.874 67.776C73.1967 67.776 74.4127 67.584 75.522 67.2C76.6313 66.7733 77.8687 66.112 79.234 65.216L81.922 69.056C78.85 71.5307 75.4153 72.768 71.618 72.768C67.0527 72.768 63.4473 71.232 60.802 68.16C58.1993 65.088 56.898 60.8427 56.898 55.424C56.898 51.84 57.4953 48.704 58.69 46.016C59.8847 43.328 61.57 41.2373 63.746 39.744C65.9647 38.2507 68.5887 37.504 71.618 37.504Z" fill="white"/>
</svg>
